<svg width="170" height="52" viewBox="0 0 170 52" fill="none" xmlns="http://www.w3.org/2000/svg">
<g clip-path="url(#clip0_2902_2)">
<mask id="mask0_2902_2" style="mask-type:luminance" maskUnits="userSpaceOnUse" x="0" y="0" width="170" height="52">
<path d="M170 0H0V52H170V0Z" fill="white"/>
</mask>
<g mask="url(#mask0_2902_2)">
<path d="M170 0H60V52H170V0Z" fill="#FF5D01"/>
<path d="M60 0H0V52H60V0Z" fill="#3B3B3B"/>
<path d="M35.432 32.48C34.472 33.3013 32.556 33.86 30.3494 33.86C27.64 33.86 25.3694 33.0173 24.7667 31.8827C24.552 32.5333 24.5027 33.2773 24.5027 33.752C24.5027 33.752 24.3614 36.0853 25.984 37.7093C25.984 36.8667 26.668 36.1827 27.5107 36.1827C28.9547 36.1827 28.9534 37.4427 28.952 38.4653V38.5573C28.952 40.1093 29.9 41.4387 31.2494 42C31.0416 41.5725 30.934 41.1033 30.9347 40.628C30.9347 39.148 31.804 38.5973 32.8147 37.9573C33.6174 37.4467 34.5107 36.8813 35.1254 35.744C35.4568 35.1324 35.6301 34.4476 35.6294 33.752C35.6295 33.3204 35.563 32.8913 35.432 32.48ZM34.7347 10.8C34.996 11.1253 35.1294 11.5627 35.396 12.4387L41.22 31.568C39.0325 30.4328 36.6846 29.6379 34.2574 29.2107L30.4667 16.4C30.4364 16.2978 30.3738 16.2082 30.2883 16.1446C30.2028 16.081 30.0989 16.0467 29.9924 16.047C29.8858 16.0473 29.7822 16.0821 29.697 16.1463C29.6119 16.2104 29.5498 16.3003 29.52 16.4027L25.7734 29.2067C23.3354 29.6321 20.9769 30.4284 18.78 31.568L24.632 12.436C24.8987 11.5613 25.032 11.124 25.2947 10.8C25.5254 10.5139 25.8257 10.2917 26.1667 10.1547C26.5534 10 27.0094 10 27.924 10H32.104C33.0187 10 33.4774 10 33.864 10.156C34.2039 10.2931 34.5032 10.5148 34.7334 10.8H34.7347Z" fill="white"/>
</g>
<path d="M91.76 35.264C91.44 35.264 91.144 35.216 90.872 35.12C90.6 35.024 90.424 34.888 90.344 34.712L86.24 25.208C86.208 25.16 86.176 25.096 86.144 25.016C86.128 24.92 86.12 24.84 86.12 24.776C86.12 24.536 86.232 24.32 86.456 24.128C86.696 23.92 86.976 23.76 87.296 23.648C87.616 23.52 87.912 23.456 88.184 23.456C88.376 23.456 88.552 23.496 88.712 23.576C88.888 23.656 89.008 23.792 89.072 23.984L91.76 30.944L94.424 24.032C94.488 23.824 94.6 23.68 94.76 23.6C94.92 23.504 95.104 23.456 95.312 23.456C95.52 23.456 95.784 23.52 96.104 23.648C96.44 23.76 96.736 23.92 96.992 24.128C97.248 24.336 97.376 24.56 97.376 24.8C97.376 24.88 97.368 24.952 97.352 25.016C97.336 25.08 97.312 25.144 97.28 25.208L93.152 34.712C93.072 34.888 92.896 35.024 92.624 35.12C92.352 35.216 92.064 35.264 91.76 35.264ZM105.836 35C105.452 35 105.092 34.92 104.756 34.76C104.436 34.584 104.276 34.328 104.276 33.992V31.184H98.5164C98.2124 31.184 97.9564 31.088 97.7484 30.896C97.5404 30.688 97.4364 30.416 97.4364 30.08C97.4364 29.984 97.4524 29.88 97.4844 29.768C97.5164 29.656 97.5564 29.544 97.6044 29.432L103.292 18.272C103.436 17.968 103.628 17.76 103.868 17.648C104.108 17.52 104.356 17.456 104.612 17.456C104.804 17.456 105.02 17.504 105.26 17.6C105.5 17.696 105.708 17.84 105.884 18.032C106.076 18.208 106.172 18.416 106.172 18.656C106.172 18.752 106.132 18.888 106.052 19.064L101.444 28.28H104.276V25.76C104.276 25.408 104.436 25.16 104.756 25.016C105.092 24.856 105.452 24.776 105.836 24.776C106.22 24.776 106.572 24.856 106.892 25.016C107.228 25.16 107.396 25.408 107.396 25.76V28.28H108.5C108.836 28.28 109.084 28.432 109.244 28.736C109.42 29.04 109.508 29.368 109.508 29.72C109.508 30.088 109.404 30.424 109.196 30.728C108.988 31.032 108.756 31.184 108.5 31.184H107.396V33.992C107.396 34.328 107.228 34.584 106.892 34.76C106.572 34.92 106.22 35 105.836 35ZM111.788 35.144C111.324 35.144 110.932 34.984 110.612 34.664C110.308 34.328 110.156 33.944 110.156 33.512C110.156 33.064 110.308 32.68 110.612 32.36C110.932 32.04 111.324 31.88 111.788 31.88C112.22 31.88 112.596 32.04 112.916 32.36C113.236 32.68 113.396 33.064 113.396 33.512C113.396 33.944 113.236 34.328 112.916 34.664C112.596 34.984 112.22 35.144 111.788 35.144ZM117.64 35C117.256 35 116.896 34.92 116.56 34.76C116.24 34.584 116.08 34.328 116.08 33.992V21.2L115.312 21.968C115.216 22.032 115.12 22.088 115.024 22.136C114.928 22.168 114.84 22.184 114.76 22.184C114.456 22.184 114.208 22.056 114.016 21.8C113.84 21.528 113.752 21.232 113.752 20.912C113.752 20.704 113.8 20.504 113.896 20.312C113.992 20.104 114.136 19.936 114.328 19.808L117.16 17.648C117.256 17.568 117.352 17.512 117.448 17.48C117.56 17.432 117.688 17.408 117.832 17.408C118.152 17.408 118.456 17.504 118.744 17.696C119.048 17.872 119.2 18.12 119.2 18.44V33.992C119.2 34.328 119.04 34.584 118.72 34.76C118.4 34.92 118.04 35 117.64 35ZM127.29 35.144C126.234 35.144 125.282 34.968 124.434 34.616C123.586 34.248 122.906 33.664 122.394 32.864C121.898 32.048 121.65 30.968 121.65 29.624V22.976C121.65 21.632 121.906 20.56 122.418 19.76C122.93 18.944 123.618 18.36 124.482 18.008C125.362 17.64 126.354 17.456 127.458 17.456C128.402 17.456 129.218 17.592 129.906 17.864C130.594 18.12 131.162 18.464 131.61 18.896C132.058 19.328 132.386 19.808 132.594 20.336C132.802 20.848 132.906 21.352 132.906 21.848C132.906 22.328 132.786 22.664 132.546 22.856C132.306 23.048 131.938 23.144 131.442 23.144C131.026 23.144 130.65 23.064 130.314 22.904C129.994 22.744 129.834 22.432 129.834 21.968C129.834 21.6 129.714 21.288 129.474 21.032C129.25 20.76 128.954 20.552 128.586 20.408C128.218 20.264 127.81 20.192 127.362 20.192C126.546 20.192 125.906 20.416 125.442 20.864C124.994 21.312 124.77 22.016 124.77 22.976V25.568C125.154 25.104 125.618 24.784 126.162 24.608C126.722 24.432 127.314 24.344 127.938 24.344C128.85 24.344 129.674 24.496 130.41 24.8C131.162 25.104 131.762 25.616 132.21 26.336C132.674 27.056 132.906 28.048 132.906 29.312V29.624C132.906 30.968 132.658 32.048 132.162 32.864C131.666 33.664 130.994 34.248 130.146 34.616C129.298 34.968 128.346 35.144 127.29 35.144ZM127.29 32.576C128.074 32.576 128.682 32.36 129.114 31.928C129.562 31.496 129.786 30.8 129.786 29.84V29.528C129.786 28.536 129.562 27.832 129.114 27.416C128.682 27 128.066 26.792 127.266 26.792C126.514 26.792 125.906 26.984 125.442 27.368C124.994 27.752 124.77 28.4 124.77 29.312V29.84C124.77 30.8 124.994 31.496 125.442 31.928C125.89 32.36 126.506 32.576 127.29 32.576ZM136.046 35.144C135.582 35.144 135.19 34.984 134.87 34.664C134.566 34.328 134.414 33.944 134.414 33.512C134.414 33.064 134.566 32.68 134.87 32.36C135.19 32.04 135.582 31.88 136.046 31.88C136.478 31.88 136.854 32.04 137.174 32.36C137.494 32.68 137.654 33.064 137.654 33.512C137.654 33.944 137.494 34.328 137.174 34.664C136.854 34.984 136.478 35.144 136.046 35.144ZM142.088 35.12C141.784 35.12 141.472 35.056 141.152 34.928C140.848 34.784 140.6 34.592 140.408 34.352C140.232 34.112 140.144 33.848 140.144 33.56C140.144 33.368 140.192 33.184 140.288 33.008L146.552 21.776V20.192H141.536V22.136C141.536 22.408 141.376 22.648 141.056 22.856C140.736 23.048 140.368 23.144 139.952 23.144C139.536 23.144 139.176 23.048 138.872 22.856C138.568 22.648 138.416 22.408 138.416 22.136V18.464C138.416 18.208 138.56 17.976 138.848 17.768C139.136 17.56 139.448 17.456 139.784 17.456H148.304C148.608 17.456 148.912 17.56 149.216 17.768C149.52 17.976 149.672 18.208 149.672 18.464V21.176C149.672 21.416 149.608 21.712 149.48 22.064C149.352 22.4 149.208 22.712 149.048 23L143 34.664C142.84 34.968 142.536 35.12 142.088 35.12Z" fill="white"/>
</g>
<defs>
<clipPath id="clip0_2902_2">
<rect width="170" height="52" fill="white"/>
</clipPath>
</defs>
</svg>
