<svg width="170" height="52" viewBox="0 0 170 52" fill="none" xmlns="http://www.w3.org/2000/svg">
<g clip-path="url(#clip0_2902_2)">
<mask id="mask0_2902_2" style="mask-type:luminance" maskUnits="userSpaceOnUse" x="0" y="0" width="170" height="52">
<path d="M170 0H0V52H170V0Z" fill="white"/>
</mask>
<g mask="url(#mask0_2902_2)">
<path d="M170 0H60V52H170V0Z" fill="#FF5D01"/>
<path d="M60 0H0V52H60V0Z" fill="#3B3B3B"/>
<path d="M35.432 32.48C34.472 33.3013 32.556 33.86 30.3494 33.86C27.64 33.86 25.3694 33.0173 24.7667 31.8827C24.552 32.5333 24.5027 33.2773 24.5027 33.752C24.5027 33.752 24.3614 36.0853 25.984 37.7093C25.984 36.8667 26.668 36.1827 27.5107 36.1827C28.9547 36.1827 28.9534 37.4427 28.952 38.4653V38.5573C28.952 40.1093 29.9 41.4387 31.2494 42C31.0416 41.5725 30.934 41.1033 30.9347 40.628C30.9347 39.148 31.804 38.5973 32.8147 37.9573C33.6174 37.4467 34.5107 36.8813 35.1254 35.744C35.4568 35.1324 35.6301 34.4476 35.6294 33.752C35.6295 33.3204 35.563 32.8913 35.432 32.48ZM34.7347 10.8C34.996 11.1253 35.1294 11.5627 35.396 12.4387L41.22 31.568C39.0325 30.4328 36.6846 29.6379 34.2574 29.2107L30.4667 16.4C30.4364 16.2978 30.3738 16.2082 30.2883 16.1446C30.2028 16.081 30.0989 16.0467 29.9924 16.047C29.8858 16.0473 29.7822 16.0821 29.697 16.1463C29.6119 16.2104 29.5498 16.3003 29.52 16.4027L25.7734 29.2067C23.3354 29.6321 20.9769 30.4284 18.78 31.568L24.632 12.436C24.8987 11.5613 25.032 11.124 25.2947 10.8C25.5254 10.5139 25.8257 10.2917 26.1667 10.1547C26.5534 10 27.0094 10 27.924 10H32.104C33.0187 10 33.4774 10 33.864 10.156C34.2039 10.2931 34.5032 10.5148 34.7334 10.8H34.7347Z" fill="white"/>
</g>
<path d="M91.76 35.264C91.44 35.264 91.144 35.216 90.872 35.12C90.6 35.024 90.424 34.888 90.344 34.712L86.24 25.208C86.208 25.16 86.176 25.096 86.144 25.016C86.128 24.92 86.12 24.84 86.12 24.776C86.12 24.536 86.232 24.32 86.456 24.128C86.696 23.92 86.976 23.76 87.296 23.648C87.616 23.52 87.912 23.456 88.184 23.456C88.376 23.456 88.552 23.496 88.712 23.576C88.888 23.656 89.008 23.792 89.072 23.984L91.76 30.944L94.424 24.032C94.488 23.824 94.6 23.68 94.76 23.6C94.92 23.504 95.104 23.456 95.312 23.456C95.52 23.456 95.784 23.52 96.104 23.648C96.44 23.76 96.736 23.92 96.992 24.128C97.248 24.336 97.376 24.56 97.376 24.8C97.376 24.88 97.368 24.952 97.352 25.016C97.336 25.08 97.312 25.144 97.28 25.208L93.152 34.712C93.072 34.888 92.896 35.024 92.624 35.12C92.352 35.216 92.064 35.264 91.76 35.264ZM103.46 35.144C102.484 35.144 101.644 35.008 100.94 34.736C100.252 34.464 99.6844 34.112 99.2364 33.68C98.7884 33.248 98.4604 32.776 98.2524 32.264C98.0604 31.752 97.9644 31.256 97.9644 30.776C97.9644 30.296 98.0684 29.976 98.2764 29.816C98.5004 29.64 98.8844 29.552 99.4284 29.552C100.068 29.552 100.492 29.64 100.7 29.816C100.924 29.976 101.036 30.248 101.036 30.632C101.036 30.92 101.092 31.176 101.204 31.4C101.316 31.608 101.476 31.792 101.684 31.952C101.908 32.096 102.172 32.208 102.476 32.288C102.796 32.368 103.148 32.408 103.532 32.408C104.428 32.408 105.076 32.208 105.476 31.808C105.892 31.408 106.1 30.744 106.1 29.816V29.36C106.1 28.48 105.852 27.88 105.356 27.56C104.876 27.24 104.252 27.08 103.484 27.08C103.132 27.08 102.884 26.952 102.74 26.696C102.596 26.44 102.524 26.16 102.524 25.856C102.524 25.552 102.596 25.272 102.74 25.016C102.884 24.76 103.124 24.632 103.46 24.632C103.86 24.632 104.228 24.584 104.564 24.488C104.9 24.376 105.164 24.152 105.356 23.816C105.564 23.48 105.668 22.968 105.668 22.28C105.668 21.48 105.476 20.928 105.092 20.624C104.724 20.32 104.212 20.168 103.556 20.168C103.172 20.168 102.844 20.208 102.572 20.288C102.3 20.352 102.076 20.456 101.9 20.6C101.724 20.744 101.596 20.912 101.516 21.104C101.452 21.296 101.42 21.52 101.42 21.776C101.42 22.128 101.316 22.416 101.108 22.64C100.916 22.864 100.532 22.976 99.9564 22.976C99.4764 22.976 99.1244 22.936 98.9004 22.856C98.6764 22.776 98.5244 22.64 98.4444 22.448C98.3644 22.24 98.3244 21.968 98.3244 21.632C98.3244 21.2 98.4124 20.744 98.5884 20.264C98.7644 19.784 99.0524 19.328 99.4524 18.896C99.8524 18.464 100.388 18.12 101.06 17.864C101.732 17.592 102.572 17.456 103.58 17.456C104.556 17.456 105.42 17.592 106.172 17.864C106.94 18.136 107.548 18.584 107.996 19.208C108.444 19.832 108.668 20.68 108.668 21.752C108.668 22.696 108.5 23.528 108.164 24.248C107.828 24.968 107.364 25.464 106.772 25.736C107.476 26.008 108.06 26.432 108.524 27.008C108.988 27.584 109.22 28.368 109.22 29.36V29.816C109.22 31.112 108.956 32.152 108.428 32.936C107.916 33.704 107.22 34.264 106.34 34.616C105.476 34.968 104.516 35.144 103.46 35.144ZM112.304 35.144C111.84 35.144 111.448 34.984 111.128 34.664C110.824 34.328 110.672 33.944 110.672 33.512C110.672 33.064 110.824 32.68 111.128 32.36C111.448 32.04 111.84 31.88 112.304 31.88C112.736 31.88 113.112 32.04 113.432 32.36C113.752 32.68 113.912 33.064 113.912 33.512C113.912 33.944 113.752 34.328 113.432 34.664C113.112 34.984 112.736 35.144 112.304 35.144ZM116.586 35C116.314 35 116.018 34.912 115.698 34.736C115.378 34.544 115.218 34.296 115.218 33.992V31.664C115.218 31.04 115.402 30.456 115.77 29.912C116.138 29.352 116.618 28.824 117.21 28.328C117.802 27.832 118.426 27.352 119.082 26.888C119.738 26.424 120.354 25.952 120.93 25.472C121.522 24.992 122.002 24.504 122.37 24.008C122.754 23.512 122.946 22.984 122.946 22.424C122.946 22.088 122.866 21.76 122.706 21.44C122.562 21.104 122.322 20.832 121.986 20.624C121.666 20.4 121.242 20.288 120.714 20.288C120.138 20.288 119.634 20.456 119.202 20.792C118.786 21.112 118.578 21.648 118.578 22.4C118.578 22.688 118.434 22.952 118.146 23.192C117.858 23.432 117.458 23.552 116.946 23.552C116.53 23.552 116.194 23.432 115.938 23.192C115.682 22.952 115.554 22.512 115.554 21.872C115.554 20.96 115.794 20.176 116.274 19.52C116.754 18.848 117.386 18.336 118.17 17.984C118.97 17.632 119.818 17.456 120.714 17.456C121.642 17.456 122.514 17.656 123.33 18.056C124.146 18.44 124.802 18.992 125.298 19.712C125.81 20.432 126.066 21.304 126.066 22.328C126.066 23.176 125.882 23.944 125.514 24.632C125.146 25.32 124.674 25.944 124.098 26.504C123.522 27.064 122.906 27.576 122.25 28.04C121.61 28.488 121.002 28.912 120.426 29.312C119.85 29.696 119.378 30.08 119.01 30.464C118.642 30.848 118.458 31.248 118.458 31.664V32.264H125.13C125.402 32.264 125.634 32.4 125.826 32.672C126.018 32.928 126.114 33.24 126.114 33.608C126.114 33.976 126.018 34.304 125.826 34.592C125.634 34.864 125.402 35 125.13 35H116.586ZM129.015 35.144C128.551 35.144 128.159 34.984 127.839 34.664C127.535 34.328 127.383 33.944 127.383 33.512C127.383 33.064 127.535 32.68 127.839 32.36C128.159 32.04 128.551 31.88 129.015 31.88C129.447 31.88 129.823 32.04 130.143 32.36C130.463 32.68 130.623 33.064 130.623 33.512C130.623 33.944 130.463 34.328 130.143 34.664C129.823 34.984 129.447 35.144 129.015 35.144ZM137.281 35.144C136.305 35.144 135.465 35.008 134.761 34.736C134.073 34.464 133.505 34.112 133.057 33.68C132.609 33.248 132.281 32.776 132.073 32.264C131.881 31.752 131.785 31.256 131.785 30.776C131.785 30.296 131.889 29.976 132.097 29.816C132.321 29.64 132.705 29.552 133.249 29.552C133.889 29.552 134.313 29.64 134.521 29.816C134.745 29.976 134.857 30.248 134.857 30.632C134.857 30.92 134.913 31.176 135.025 31.4C135.137 31.608 135.297 31.792 135.505 31.952C135.729 32.096 135.993 32.208 136.297 32.288C136.617 32.368 136.969 32.408 137.353 32.408C138.249 32.408 138.897 32.208 139.297 31.808C139.713 31.408 139.921 30.744 139.921 29.816V29.36C139.921 28.48 139.673 27.88 139.177 27.56C138.697 27.24 138.073 27.08 137.305 27.08C136.953 27.08 136.705 26.952 136.561 26.696C136.417 26.44 136.345 26.16 136.345 25.856C136.345 25.552 136.417 25.272 136.561 25.016C136.705 24.76 136.945 24.632 137.281 24.632C137.681 24.632 138.049 24.584 138.385 24.488C138.721 24.376 138.985 24.152 139.177 23.816C139.385 23.48 139.489 22.968 139.489 22.28C139.489 21.48 139.297 20.928 138.913 20.624C138.545 20.32 138.033 20.168 137.377 20.168C136.993 20.168 136.665 20.208 136.393 20.288C136.121 20.352 135.897 20.456 135.721 20.6C135.545 20.744 135.417 20.912 135.337 21.104C135.273 21.296 135.241 21.52 135.241 21.776C135.241 22.128 135.137 22.416 134.929 22.64C134.737 22.864 134.353 22.976 133.777 22.976C133.297 22.976 132.945 22.936 132.721 22.856C132.497 22.776 132.345 22.64 132.265 22.448C132.185 22.24 132.145 21.968 132.145 21.632C132.145 21.2 132.233 20.744 132.409 20.264C132.585 19.784 132.873 19.328 133.273 18.896C133.673 18.464 134.209 18.12 134.881 17.864C135.553 17.592 136.393 17.456 137.401 17.456C138.377 17.456 139.241 17.592 139.993 17.864C140.761 18.136 141.369 18.584 141.817 19.208C142.265 19.832 142.489 20.68 142.489 21.752C142.489 22.696 142.321 23.528 141.985 24.248C141.649 24.968 141.185 25.464 140.593 25.736C141.297 26.008 141.881 26.432 142.345 27.008C142.809 27.584 143.041 28.368 143.041 29.36V29.816C143.041 31.112 142.777 32.152 142.249 32.936C141.737 33.704 141.041 34.264 140.161 34.616C139.297 34.968 138.337 35.144 137.281 35.144Z" fill="white"/>
</g>
<defs>
<clipPath id="clip0_2902_2">
<rect width="170" height="52" fill="white"/>
</clipPath>
</defs>
</svg>
