<svg width="761" height="37" viewBox="0 0 761 37" fill="none" xmlns="http://www.w3.org/2000/svg">
<path d="M17.9873 36.6104C12.9743 36.6104 8.889 34.9827 5.73145 31.7275C2.57389 28.4561 0.995117 24.1999 0.995117 18.959C0.995117 13.4251 2.59831 8.94922 5.80469 5.53125C9.01107 2.11328 13.2591 0.404297 18.5488 0.404297C23.5456 0.404297 27.582 2.04004 30.6582 5.31152C33.7507 8.58301 35.2969 12.8962 35.2969 18.251C35.2969 23.7523 33.6937 28.1875 30.4873 31.5566C27.2972 34.9258 23.1305 36.6104 17.9873 36.6104ZM18.3291 7.19141C15.5622 7.19141 13.3649 8.23307 11.7373 10.3164C10.1097 12.3835 9.2959 15.126 9.2959 18.5439C9.2959 22.0107 10.1097 24.7533 11.7373 26.7715C13.3649 28.7897 15.4971 29.7988 18.1338 29.7988C20.8519 29.7988 23.0085 28.8223 24.6035 26.8691C26.1986 24.8997 26.9961 22.1735 26.9961 18.6904C26.9961 15.0609 26.223 12.237 24.6768 10.2188C23.1305 8.20052 21.0146 7.19141 18.3291 7.19141ZM61.3711 7.41113H49.0176V16.0049H60.3701V22.4014H49.0176V36H41.1318V0.990234H61.3711V7.41113ZM87.3965 7.41113H75.043V16.0049H86.3955V22.4014H75.043V36H67.1572V0.990234H87.3965V7.41113ZM101.068 36H93.1826V0.990234H101.068V36ZM134.149 34.7549C131.594 35.9919 128.257 36.6104 124.14 36.6104C118.769 36.6104 114.545 35.0316 111.469 31.874C108.393 28.7165 106.854 24.5091 106.854 19.252C106.854 13.653 108.58 9.11198 112.03 5.62891C115.497 2.14583 119.989 0.404297 125.507 0.404297C128.925 0.404297 131.806 0.835612 134.149 1.69824V9.29102C131.806 7.89128 129.136 7.19141 126.142 7.19141C122.854 7.19141 120.201 8.22493 118.183 10.292C116.164 12.359 115.155 15.1585 115.155 18.6904C115.155 22.0758 116.107 24.7777 118.012 26.7959C119.916 28.7979 122.479 29.7988 125.702 29.7988C128.778 29.7988 131.594 29.0501 134.149 27.5527V34.7549ZM148.139 36H140.253V0.990234H148.139V36ZM186.908 36H178.314L175.824 28.2119H163.373L160.907 36H152.362L165.106 0.990234H174.457L186.908 36ZM174.018 22.1572L170.258 10.3896C169.981 9.51074 169.786 8.46094 169.672 7.24023H169.477C169.395 8.26562 169.192 9.28288 168.866 10.292L165.058 22.1572H174.018ZM212.128 36H191.278V0.990234H199.164V29.6035H212.128V36Z" fill="#D73968"/>
<path d="M249.042 4.70117H235.37V16.8105H248.017V20.4971H235.37V36H231.269V0.990234H249.042V4.70117ZM279.853 36H275.312L271.601 26.1855H256.757L253.266 36H248.7L262.128 0.990234H266.376L279.853 36ZM270.258 22.499L264.765 7.58203C264.586 7.09375 264.407 6.3125 264.228 5.23828H264.13C263.967 6.23112 263.78 7.01237 263.568 7.58203L258.124 22.499H270.258ZM309.345 1.9668L288.837 32.2891H308.856V36H282.709V34.8525L303.046 4.70117H284.345V0.990234H309.345V1.9668ZM336.688 4.70117H326.581V36H322.479V4.70117H312.396V0.990234H336.688V4.70117ZM708.431 0.990234L698.543 36H693.733L686.531 10.4141C686.222 9.32357 686.035 8.13542 685.97 6.84961H685.872C685.774 8.05404 685.563 9.22591 685.237 10.3652L677.986 36H673.226L662.972 0.990234H667.488L674.935 27.8457C675.244 28.9688 675.439 30.1406 675.521 31.3613H675.643C675.724 30.4987 675.976 29.3268 676.399 27.8457L684.139 0.990234H688.069L695.491 28.041C695.752 28.9688 695.947 30.0592 696.077 31.3125H696.175C696.24 30.4661 696.46 29.3431 696.834 27.9434L703.987 0.990234H708.431ZM732.21 36H713.655V0.990234H731.429V4.70117H717.757V16.3467H730.403V20.0332H717.757V32.2891H732.21V36ZM738.948 36V0.990234H748.909C751.937 0.990234 754.337 1.73079 756.111 3.21191C757.885 4.69303 758.772 6.62174 758.772 8.99805C758.772 10.9837 758.235 12.709 757.161 14.1738C756.087 15.6387 754.606 16.6803 752.718 17.2988V17.3965C755.078 17.6732 756.966 18.5684 758.382 20.082C759.798 21.5794 760.506 23.5326 760.506 25.9414C760.506 28.9362 759.432 31.3613 757.283 33.2168C755.135 35.0723 752.425 36 749.153 36H738.948ZM743.05 4.70117V16.0049H747.249C749.495 16.0049 751.261 15.4678 752.547 14.3936C753.833 13.3031 754.476 11.7731 754.476 9.80371C754.476 6.40202 752.238 4.70117 747.762 4.70117H743.05ZM743.05 19.6914V32.2891H748.616C751.025 32.2891 752.889 31.7194 754.207 30.5801C755.542 29.4408 756.209 27.8783 756.209 25.8926C756.209 21.7585 753.393 19.6914 747.762 19.6914H743.05ZM379.159 34.5352C376.571 35.9023 373.349 36.5859 369.491 36.5859C364.511 36.5859 360.523 34.9827 357.528 31.7764C354.534 28.57 353.036 24.3626 353.036 19.1543C353.036 13.5553 354.721 9.0306 358.09 5.58008C361.459 2.12956 365.731 0.404297 370.907 0.404297C374.228 0.404297 376.978 0.88444 379.159 1.84473V6.21484C376.653 4.8151 373.886 4.11523 370.858 4.11523C366.838 4.11523 363.575 5.45801 361.068 8.14355C358.578 10.8291 357.333 14.418 357.333 18.9102C357.333 23.1745 358.497 26.5762 360.824 29.1152C363.168 31.638 366.236 32.8994 370.028 32.8994C373.544 32.8994 376.588 32.1182 379.159 30.5557V34.5352ZM399.032 36.5859C394.068 36.5859 390.089 34.9502 387.094 31.6787C384.115 28.4072 382.626 24.151 382.626 18.9102C382.626 13.2786 384.148 8.78646 387.191 5.43359C390.235 2.08073 394.377 0.404297 399.618 0.404297C404.452 0.404297 408.342 2.0319 411.288 5.28711C414.25 8.54232 415.731 12.7985 415.731 18.0557C415.731 23.7686 414.218 28.2852 411.19 31.6055C408.163 34.9258 404.11 36.5859 399.032 36.5859ZM399.325 4.11523C395.647 4.11523 392.66 5.44173 390.365 8.09473C388.07 10.7477 386.923 14.2308 386.923 18.5439C386.923 22.8571 388.038 26.332 390.268 28.9688C392.514 31.5892 395.435 32.8994 399.032 32.8994C402.873 32.8994 405.901 31.6462 408.114 29.1396C410.328 26.6331 411.435 23.1257 411.435 18.6172C411.435 13.9948 410.36 10.4222 408.212 7.89941C406.063 5.37663 403.101 4.11523 399.325 4.11523ZM458.31 36H454.232V12.5137C454.232 10.6582 454.346 8.3877 454.574 5.70215H454.477C454.086 7.28092 453.736 8.41211 453.427 9.0957L441.464 36H439.462L427.523 9.29102C427.182 8.50977 426.832 7.31348 426.474 5.70215H426.376C426.506 7.10189 426.571 9.38867 426.571 12.5625V36H422.616V0.990234H428.036L438.778 25.4043C439.608 27.276 440.146 28.6758 440.39 29.6035H440.536C441.236 27.6829 441.798 26.2507 442.221 25.3066L453.183 0.990234H458.31V36ZM503.231 36H499.154V12.5137C499.154 10.6582 499.268 8.3877 499.496 5.70215H499.398C499.008 7.28092 498.658 8.41211 498.349 9.0957L486.386 36H484.384L472.445 9.29102C472.104 8.50977 471.754 7.31348 471.396 5.70215H471.298C471.428 7.10189 471.493 9.38867 471.493 12.5625V36H467.538V0.990234H472.958L483.7 25.4043C484.53 27.276 485.067 28.6758 485.312 29.6035H485.458C486.158 27.6829 486.719 26.2507 487.143 25.3066L498.104 0.990234H503.231V36ZM538.07 21.8398C538.07 31.6706 533.635 36.5859 524.765 36.5859C516.269 36.5859 512.021 31.8577 512.021 22.4014V0.990234H516.122V22.1328C516.122 29.3105 519.149 32.8994 525.204 32.8994C531.047 32.8994 533.969 29.4326 533.969 22.499V0.990234H538.07V21.8398ZM575.058 36H570.028L552.011 8.09473C551.555 7.39486 551.181 6.66243 550.888 5.89746H550.741C550.871 6.64616 550.937 8.24935 550.937 10.707V36H546.835V0.990234H552.157L569.687 28.4561C570.419 29.5954 570.891 30.3766 571.103 30.7998H571.2C571.037 29.7907 570.956 28.0736 570.956 25.6484V0.990234H575.058V36ZM588.339 36H584.237V0.990234H588.339V36ZM618.271 4.70117H608.163V36H604.062V4.70117H593.979V0.990234H618.271V4.70117ZM647.519 0.990234L635.971 23.0605V36H631.869V23.1582L620.614 0.990234H625.277L633.114 16.8105C633.212 17.0059 633.497 17.722 633.969 18.959H634.042C634.205 18.4056 634.514 17.6895 634.97 16.8105L643.173 0.990234H647.519Z" fill="#2D2D2D"/>
</svg>
