<svg width="170" height="52" viewBox="0 0 170 52" fill="none" xmlns="http://www.w3.org/2000/svg">
<g clip-path="url(#clip0_2902_2)">
<mask id="mask0_2902_2" style="mask-type:luminance" maskUnits="userSpaceOnUse" x="0" y="0" width="170" height="52">
<path d="M170 0H0V52H170V0Z" fill="white"/>
</mask>
<g mask="url(#mask0_2902_2)">
<path d="M170 0H60V52H170V0Z" fill="#FF5D01"/>
<path d="M60 0H0V52H60V0Z" fill="#3B3B3B"/>
<path d="M35.432 32.48C34.472 33.3013 32.556 33.86 30.3494 33.86C27.64 33.86 25.3694 33.0173 24.7667 31.8827C24.552 32.5333 24.5027 33.2773 24.5027 33.752C24.5027 33.752 24.3614 36.0853 25.984 37.7093C25.984 36.8667 26.668 36.1827 27.5107 36.1827C28.9547 36.1827 28.9534 37.4427 28.952 38.4653V38.5573C28.952 40.1093 29.9 41.4387 31.2494 42C31.0416 41.5725 30.934 41.1033 30.9347 40.628C30.9347 39.148 31.804 38.5973 32.8147 37.9573C33.6174 37.4467 34.5107 36.8813 35.1254 35.744C35.4568 35.1324 35.6301 34.4476 35.6294 33.752C35.6295 33.3204 35.563 32.8913 35.432 32.48ZM34.7347 10.8C34.996 11.1253 35.1294 11.5627 35.396 12.4387L41.22 31.568C39.0325 30.4328 36.6846 29.6379 34.2574 29.2107L30.4667 16.4C30.4364 16.2978 30.3738 16.2082 30.2883 16.1446C30.2028 16.081 30.0989 16.0467 29.9924 16.047C29.8858 16.0473 29.7822 16.0821 29.697 16.1463C29.6119 16.2104 29.5498 16.3003 29.52 16.4027L25.7734 29.2067C23.3354 29.6321 20.9769 30.4284 18.78 31.568L24.632 12.436C24.8987 11.5613 25.032 11.124 25.2947 10.8C25.5254 10.5139 25.8257 10.2917 26.1667 10.1547C26.5534 10 27.0094 10 27.924 10H32.104C33.0187 10 33.4774 10 33.864 10.156C34.2039 10.2931 34.5032 10.5148 34.7334 10.8H34.7347Z" fill="white"/>
</g>
<path d="M91.048 35.312C90.68 35.312 90.328 35.256 89.992 35.144C89.672 35.032 89.464 34.872 89.368 34.664L85.144 25.424C85.112 25.36 85.08 25.288 85.048 25.208C85.032 25.112 85.024 25.032 85.024 24.968C85.024 24.68 85.168 24.416 85.456 24.176C85.744 23.936 86.08 23.752 86.464 23.624C86.864 23.48 87.224 23.408 87.544 23.408C87.768 23.408 87.976 23.456 88.168 23.552C88.36 23.632 88.496 23.784 88.576 24.008L91.048 30.272L93.52 24.008C93.6 23.784 93.728 23.632 93.904 23.552C94.096 23.456 94.304 23.408 94.528 23.408C94.784 23.408 95.112 23.48 95.512 23.624C95.912 23.768 96.264 23.96 96.568 24.2C96.888 24.44 97.048 24.704 97.048 24.992C97.048 25.072 97.04 25.144 97.024 25.208C97.008 25.272 96.984 25.344 96.952 25.424L92.728 34.664C92.632 34.872 92.416 35.032 92.08 35.144C91.76 35.256 91.416 35.312 91.048 35.312ZM103.166 35.144C102.142 35.144 101.262 35.008 100.526 34.736C99.8063 34.448 99.2143 34.08 98.7503 33.632C98.3023 33.184 97.9743 32.696 97.7663 32.168C97.5583 31.624 97.4543 31.104 97.4543 30.608C97.4543 30.064 97.5823 29.704 97.8383 29.528C98.1103 29.336 98.5743 29.24 99.2303 29.24C99.9983 29.24 100.51 29.336 100.766 29.528C101.022 29.704 101.15 30.024 101.15 30.488C101.15 30.776 101.206 31.008 101.318 31.184C101.446 31.36 101.606 31.504 101.798 31.616C102.006 31.712 102.238 31.784 102.494 31.832C102.75 31.864 103.014 31.88 103.286 31.88C104.102 31.88 104.67 31.72 104.99 31.4C105.326 31.064 105.494 30.504 105.494 29.72V29.264C105.494 28.464 105.27 27.944 104.822 27.704C104.39 27.464 103.846 27.344 103.19 27.344C102.79 27.344 102.51 27.192 102.35 26.888C102.19 26.584 102.11 26.256 102.11 25.904C102.11 25.536 102.19 25.208 102.35 24.92C102.51 24.616 102.79 24.464 103.19 24.464C103.494 24.464 103.79 24.432 104.078 24.368C104.366 24.288 104.598 24.104 104.774 23.816C104.966 23.512 105.062 23.04 105.062 22.4C105.062 21.696 104.886 21.232 104.534 21.008C104.198 20.784 103.782 20.672 103.286 20.672C102.998 20.672 102.742 20.696 102.518 20.744C102.294 20.776 102.102 20.84 101.942 20.936C101.798 21.032 101.686 21.16 101.606 21.32C101.542 21.464 101.51 21.656 101.51 21.896C101.51 22.296 101.39 22.624 101.15 22.88C100.926 23.136 100.462 23.264 99.7583 23.264C99.1823 23.264 98.7583 23.224 98.4863 23.144C98.2143 23.048 98.0303 22.888 97.9343 22.664C97.8543 22.44 97.8143 22.136 97.8143 21.752C97.8143 21.288 97.9023 20.808 98.0783 20.312C98.2703 19.8 98.5743 19.328 98.9903 18.896C99.4223 18.464 99.9903 18.12 100.694 17.864C101.398 17.592 102.262 17.456 103.286 17.456C104.31 17.456 105.222 17.592 106.022 17.864C106.822 18.136 107.454 18.592 107.918 19.232C108.398 19.856 108.638 20.712 108.638 21.8C108.638 22.68 108.478 23.488 108.158 24.224C107.854 24.96 107.398 25.464 106.79 25.736C107.494 25.992 108.078 26.4 108.542 26.96C109.006 27.52 109.238 28.288 109.238 29.264V29.72C109.238 31.032 108.966 32.088 108.422 32.888C107.878 33.672 107.142 34.248 106.214 34.616C105.302 34.968 104.286 35.144 103.166 35.144ZM112.291 35.144C111.763 35.144 111.323 34.96 110.971 34.592C110.619 34.224 110.443 33.792 110.443 33.296C110.443 32.784 110.619 32.352 110.971 32C111.323 31.632 111.763 31.448 112.291 31.448C112.787 31.448 113.211 31.632 113.563 32C113.931 32.352 114.115 32.784 114.115 33.296C114.115 33.792 113.931 34.224 113.563 34.592C113.211 34.96 112.787 35.144 112.291 35.144ZM116.856 35C116.52 35 116.16 34.896 115.776 34.688C115.408 34.48 115.224 34.2 115.224 33.848V31.52C115.224 30.896 115.4 30.312 115.752 29.768C116.12 29.208 116.592 28.688 117.168 28.208C117.744 27.712 118.352 27.232 118.992 26.768C119.648 26.304 120.256 25.848 120.816 25.4C121.392 24.936 121.864 24.472 122.232 24.008C122.6 23.544 122.784 23.056 122.784 22.544C122.784 22.288 122.72 22.032 122.592 21.776C122.48 21.504 122.288 21.28 122.016 21.104C121.76 20.928 121.408 20.84 120.96 20.84C120.48 20.84 120.056 20.976 119.688 21.248C119.336 21.52 119.16 21.984 119.16 22.64C119.16 22.992 118.984 23.312 118.632 23.6C118.28 23.872 117.8 24.008 117.192 24.008C116.712 24.008 116.312 23.872 115.992 23.6C115.672 23.328 115.512 22.816 115.512 22.064C115.512 21.088 115.768 20.256 116.28 19.568C116.808 18.88 117.488 18.36 118.32 18.008C119.152 17.64 120.024 17.456 120.936 17.456C121.864 17.456 122.752 17.648 123.6 18.032C124.464 18.416 125.168 18.976 125.712 19.712C126.256 20.448 126.528 21.352 126.528 22.424C126.528 23.288 126.344 24.064 125.976 24.752C125.624 25.44 125.168 26.064 124.608 26.624C124.048 27.168 123.448 27.664 122.808 28.112C122.184 28.56 121.592 28.976 121.032 29.36C120.472 29.728 120.008 30.088 119.64 30.44C119.288 30.792 119.112 31.152 119.112 31.52V31.736H125.4C125.704 31.736 125.968 31.896 126.192 32.216C126.416 32.536 126.528 32.912 126.528 33.344C126.528 33.776 126.416 34.16 126.192 34.496C125.968 34.832 125.704 35 125.4 35H116.856ZM129.47 35.144C128.942 35.144 128.502 34.96 128.15 34.592C127.798 34.224 127.622 33.792 127.622 33.296C127.622 32.784 127.798 32.352 128.15 32C128.502 31.632 128.942 31.448 129.47 31.448C129.966 31.448 130.39 31.632 130.742 32C131.11 32.352 131.294 32.784 131.294 33.296C131.294 33.792 131.11 34.224 130.742 34.592C130.39 34.96 129.966 35.144 129.47 35.144ZM137.948 35.144C136.924 35.144 136.044 35.008 135.308 34.736C134.588 34.448 133.996 34.08 133.532 33.632C133.084 33.184 132.756 32.696 132.548 32.168C132.34 31.624 132.236 31.104 132.236 30.608C132.236 30.064 132.364 29.704 132.62 29.528C132.892 29.336 133.356 29.24 134.012 29.24C134.78 29.24 135.292 29.336 135.548 29.528C135.804 29.704 135.932 30.024 135.932 30.488C135.932 30.776 135.988 31.008 136.1 31.184C136.228 31.36 136.388 31.504 136.58 31.616C136.788 31.712 137.02 31.784 137.276 31.832C137.532 31.864 137.796 31.88 138.068 31.88C138.884 31.88 139.452 31.72 139.772 31.4C140.108 31.064 140.276 30.504 140.276 29.72V29.264C140.276 28.464 140.052 27.944 139.604 27.704C139.172 27.464 138.628 27.344 137.972 27.344C137.572 27.344 137.292 27.192 137.132 26.888C136.972 26.584 136.892 26.256 136.892 25.904C136.892 25.536 136.972 25.208 137.132 24.92C137.292 24.616 137.572 24.464 137.972 24.464C138.276 24.464 138.572 24.432 138.86 24.368C139.148 24.288 139.38 24.104 139.556 23.816C139.748 23.512 139.844 23.04 139.844 22.4C139.844 21.696 139.668 21.232 139.316 21.008C138.98 20.784 138.564 20.672 138.068 20.672C137.78 20.672 137.524 20.696 137.3 20.744C137.076 20.776 136.884 20.84 136.724 20.936C136.58 21.032 136.468 21.16 136.388 21.32C136.324 21.464 136.292 21.656 136.292 21.896C136.292 22.296 136.172 22.624 135.932 22.88C135.708 23.136 135.244 23.264 134.54 23.264C133.964 23.264 133.54 23.224 133.268 23.144C132.996 23.048 132.812 22.888 132.716 22.664C132.636 22.44 132.596 22.136 132.596 21.752C132.596 21.288 132.684 20.808 132.86 20.312C133.052 19.8 133.356 19.328 133.772 18.896C134.204 18.464 134.772 18.12 135.476 17.864C136.18 17.592 137.044 17.456 138.068 17.456C139.092 17.456 140.004 17.592 140.804 17.864C141.604 18.136 142.236 18.592 142.7 19.232C143.18 19.856 143.42 20.712 143.42 21.8C143.42 22.68 143.26 23.488 142.94 24.224C142.636 24.96 142.18 25.464 141.572 25.736C142.276 25.992 142.86 26.4 143.324 26.96C143.788 27.52 144.02 28.288 144.02 29.264V29.72C144.02 31.032 143.748 32.088 143.204 32.888C142.66 33.672 141.924 34.248 140.996 34.616C140.084 34.968 139.068 35.144 137.948 35.144Z" fill="white"/>
</g>
<defs>
<clipPath id="clip0_2902_2">
<rect width="170" height="52" fill="white"/>
</clipPath>
</defs>
</svg>
