<svg width="170" height="52" viewBox="0 0 170 52" fill="none" xmlns="http://www.w3.org/2000/svg">
<g clip-path="url(#clip0_642_47)">
<path d="M170 0H60V52H170V0Z" fill="#FF5D01"/>
<path d="M60 0H0V52H60V0Z" fill="#3B3B3B"/>
<path d="M35.432 32.48C34.472 33.3013 32.556 33.86 30.3494 33.86C27.64 33.86 25.3694 33.0173 24.7667 31.8827C24.552 32.5333 24.5027 33.2773 24.5027 33.752C24.5027 33.752 24.3614 36.0853 25.984 37.7093C25.984 36.8667 26.668 36.1827 27.5107 36.1827C28.9547 36.1827 28.9534 37.4427 28.952 38.4653V38.5573C28.952 40.1093 29.9 41.4387 31.2494 42C31.0416 41.5725 30.934 41.1033 30.9347 40.628C30.9347 39.148 31.804 38.5973 32.8147 37.9573C33.6174 37.4467 34.5107 36.8813 35.1254 35.744C35.4568 35.1324 35.6301 34.4476 35.6294 33.752C35.6295 33.3204 35.563 32.8913 35.432 32.48V32.48ZM34.7347 10.8C34.996 11.1253 35.1294 11.5627 35.396 12.4387L41.22 31.568C39.0325 30.4328 36.6846 29.6379 34.2574 29.2107L30.4667 16.4C30.4364 16.2978 30.3738 16.2082 30.2883 16.1446C30.2028 16.081 30.0989 16.0467 29.9924 16.047C29.8858 16.0473 29.7822 16.0821 29.697 16.1463C29.6119 16.2104 29.5498 16.3003 29.52 16.4027L25.7734 29.2067C23.3354 29.6321 20.9769 30.4284 18.78 31.568L24.632 12.436C24.8987 11.5613 25.032 11.124 25.2947 10.8C25.5254 10.5139 25.8257 10.2917 26.1667 10.1547C26.5534 10 27.0094 10 27.924 10H32.104C33.0187 10 33.4774 10 33.864 10.156C34.2039 10.2931 34.5032 10.5148 34.7334 10.8H34.7347Z" fill="white"/>
<path d="M93.392 34.712C93.56 35.096 94.16 35.264 94.784 35.264C95.384 35.264 96.032 35.072 96.2 34.712L100.304 25.208C100.376 25.064 100.4 24.944 100.4 24.8C100.4 24.056 98.984 23.456 98.336 23.456C97.904 23.456 97.592 23.648 97.448 24.032L94.784 30.944L92.12 23.984C91.976 23.624 91.616 23.456 91.208 23.456C90.416 23.456 89.144 24.056 89.144 24.776C89.144 24.896 89.192 25.112 89.264 25.208L93.392 34.712ZM102.979 34.016C102.979 34.664 103.747 35 104.539 35C105.307 35 106.099 34.664 106.099 34.016V18.416C106.099 17.792 105.355 17.408 104.707 17.408C104.443 17.408 104.227 17.504 104.059 17.648L101.227 19.808C100.843 20.048 100.627 20.504 100.627 20.936C100.627 21.56 101.035 22.184 101.635 22.184C101.803 22.184 102.019 22.136 102.211 21.968L102.979 21.2V34.016ZM109.773 31.88C108.837 31.88 108.141 32.624 108.141 33.512C108.141 34.376 108.837 35.144 109.773 35.144C110.637 35.144 111.381 34.376 111.381 33.512C111.381 32.624 110.637 31.88 109.773 31.88ZM113.023 21.872C113.023 23.168 113.623 23.552 114.439 23.552C115.471 23.552 116.071 22.976 116.071 22.4C116.071 20.912 117.031 20.288 118.207 20.288C119.791 20.288 120.439 21.44 120.439 22.424C120.439 25.808 112.711 27.848 112.711 31.688V34.016C112.711 34.616 113.527 35 114.079 35H122.623C123.151 35 123.607 34.328 123.607 33.608C123.607 32.888 123.151 32.264 122.623 32.264H115.951V31.688C115.951 29.192 123.559 27.512 123.559 22.328C123.559 19.28 120.967 17.456 118.183 17.456C115.519 17.456 113.023 19.136 113.023 21.872ZM126.531 31.88C125.595 31.88 124.899 32.624 124.899 33.512C124.899 34.376 125.595 35.144 126.531 35.144C127.395 35.144 128.139 34.376 128.139 33.512C128.139 32.624 127.395 31.88 126.531 31.88ZM136.212 24.344C134.964 24.344 133.812 24.632 133.02 25.568V22.952C133.02 21.056 134.004 20.192 135.636 20.192C136.956 20.192 138.084 20.84 138.084 21.968C138.084 22.904 138.852 23.144 139.716 23.144C140.7 23.144 141.18 22.832 141.18 21.848C141.18 19.832 139.548 17.456 135.708 17.456C132.444 17.456 129.924 18.944 129.924 22.952V29.648C129.924 33.656 132.396 35.144 135.564 35.144C138.732 35.144 141.18 33.656 141.18 29.648V29.312C141.18 25.52 138.924 24.344 136.212 24.344ZM133.02 29.312C133.02 27.488 134.028 26.792 135.54 26.792C137.124 26.792 138.06 27.536 138.06 29.528V29.84C138.06 31.736 137.124 32.6 135.564 32.6C133.98 32.6 133.02 31.736 133.02 29.84V29.312Z" fill="white"/>
</g>
<defs>
<clipPath id="clip0_642_47">
<rect width="170" height="52" fill="white"/>
</clipPath>
</defs>
</svg>
