<svg width="170" height="52" viewBox="0 0 170 52" fill="none" xmlns="http://www.w3.org/2000/svg">
<g clip-path="url(#clip0_642_19)">
<path d="M170 0H60V52H170V0Z" fill="#06B6D4"/>
<path d="M60 0H0V52H60V0Z" fill="#3B3B3B"/>
<path d="M22 22.7917C23.0664 18.5142 25.7336 16.375 30 16.375C36.4 16.375 37.2 21.1875 40.4 21.9896C42.5336 22.5246 44.4 21.7225 46 19.5833C44.9336 23.8608 42.2664 26 38 26C31.6 26 30.8 21.1875 27.6 20.3854C25.4664 19.8504 23.6 20.6525 22 22.7917ZM14 32.4167C15.0664 28.1392 17.7336 26 22 26C28.4 26 29.2 30.8125 32.4 31.6146C34.5336 32.1496 36.4 31.3475 38 29.2083C36.9336 33.4858 34.2664 35.625 30 35.625C23.6 35.625 22.8 30.8125 19.6 30.0104C17.4664 29.4754 15.6 30.2775 14 32.4167Z" fill="white"/>
<path d="M93.392 34.712C93.56 35.096 94.16 35.264 94.784 35.264C95.384 35.264 96.032 35.072 96.2 34.712L100.304 25.208C100.376 25.064 100.4 24.944 100.4 24.8C100.4 24.056 98.984 23.456 98.336 23.456C97.904 23.456 97.592 23.648 97.448 24.032L94.784 30.944L92.12 23.984C91.976 23.624 91.616 23.456 91.208 23.456C90.416 23.456 89.144 24.056 89.144 24.776C89.144 24.896 89.192 25.112 89.264 25.208L93.392 34.712ZM106.627 32.408C105.091 32.408 104.131 31.736 104.131 30.656C104.131 29.888 103.795 29.552 102.523 29.552C101.443 29.552 101.035 29.816 101.035 30.776C101.035 32.72 102.619 35.144 106.555 35.144C109.723 35.144 112.315 33.68 112.315 29.816V29.36C112.315 27.368 111.283 26.288 109.867 25.736C111.043 25.184 111.739 23.648 111.739 21.752C111.739 18.56 109.579 17.456 106.675 17.456C102.619 17.456 101.419 19.928 101.419 21.632C101.419 22.64 101.635 22.976 103.027 22.976C104.179 22.976 104.515 22.496 104.515 21.776C104.515 20.816 105.091 20.168 106.651 20.168C107.947 20.168 108.763 20.696 108.763 22.28C108.763 24.344 107.755 24.632 106.555 24.632C105.859 24.632 105.619 25.256 105.619 25.856C105.619 26.48 105.859 27.08 106.555 27.08C108.091 27.08 109.195 27.584 109.195 29.36V29.816C109.195 31.64 108.427 32.408 106.627 32.408ZM115.374 31.88C114.438 31.88 113.742 32.624 113.742 33.512C113.742 34.376 114.438 35.144 115.374 35.144C116.238 35.144 116.982 34.376 116.982 33.512C116.982 32.624 116.238 31.88 115.374 31.88ZM119.737 34.016C119.737 34.664 120.505 35 121.297 35C122.065 35 122.857 34.664 122.857 34.016V18.416C122.857 17.792 122.113 17.408 121.465 17.408C121.201 17.408 120.985 17.504 120.817 17.648L117.985 19.808C117.601 20.048 117.385 20.504 117.385 20.936C117.385 21.56 117.793 22.184 118.393 22.184C118.561 22.184 118.777 22.136 118.969 21.968L119.737 21.2V34.016ZM126.531 31.88C125.595 31.88 124.899 32.624 124.899 33.512C124.899 34.376 125.595 35.144 126.531 35.144C127.395 35.144 128.139 34.376 128.139 33.512C128.139 32.624 127.395 31.88 126.531 31.88ZM135.228 17.456C132.276 17.456 130.14 18.656 130.14 21.704C130.14 23.72 131.076 24.92 132.444 25.4C130.74 26.024 129.588 27.44 129.588 29.912V30.2C129.588 33.776 132.06 35.144 135.228 35.144C138.396 35.144 140.844 33.776 140.844 30.2V29.912C140.844 27.44 139.716 26.024 137.988 25.4C139.356 24.92 140.292 23.72 140.292 21.704C140.292 18.656 138.156 17.456 135.228 17.456ZM137.724 29.84C137.724 31.712 136.812 32.6 135.228 32.6C133.668 32.6 132.708 31.736 132.708 29.84V29.36C132.708 27.536 133.644 26.72 135.228 26.72C136.788 26.72 137.724 27.536 137.724 29.36V29.84ZM135.228 20C136.524 20 137.292 20.6 137.292 22.088C137.292 23.576 136.524 24.176 135.228 24.176C133.908 24.176 133.164 23.576 133.164 22.088C133.164 20.6 133.908 20 135.228 20Z" fill="white"/>
</g>
<defs>
<clipPath id="clip0_642_19">
<rect width="170" height="52" fill="white"/>
</clipPath>
</defs>
</svg>
