<svg width="170" height="52" viewBox="0 0 170 52" fill="none" xmlns="http://www.w3.org/2000/svg">
<g clip-path="url(#clip0_2902_11)">
<mask id="mask0_2902_11" style="mask-type:luminance" maskUnits="userSpaceOnUse" x="0" y="0" width="170" height="52">
<path d="M170 0H0V52H170V0Z" fill="white"/>
</mask>
<g mask="url(#mask0_2902_11)">
<path d="M170 0H60V52H170V0Z" fill="#333333"/>
<path d="M60 0H0V52H60V0Z" fill="#3B3B3B"/>
</g>
<g clip-path="url(#clip1_2902_11)">
<path d="M29.8602 32.399C29.8602 29.3229 32.354 26.8291 35.4301 26.8291C38.5062 26.8291 41 29.3229 41 32.399C41 35.4752 38.5062 37.9689 35.4301 37.9689C32.354 37.9689 29.8602 35.4752 29.8602 32.399ZM29.8602 19.6008C29.8602 16.5246 32.354 14.0308 35.4301 14.0308C38.5062 14.0308 41 16.5247 41 19.6009V24.6138C41 24.7615 40.9413 24.9031 40.8368 25.0076C40.7324 25.112 40.5907 25.1707 40.443 25.1707H30.4172C30.2695 25.1707 30.1278 25.112 30.0234 25.0076C29.9189 24.9031 29.8602 24.7615 29.8602 24.6138V19.6008ZM28.1398 32.399C28.1398 35.4752 25.6461 37.9689 22.5699 37.9689C19.4937 37.9689 17 35.4752 17 32.399V27.3861C17 27.2383 17.0587 27.0967 17.1631 26.9922C17.2676 26.8877 17.4093 26.8291 17.557 26.8291H27.5828C27.7305 26.8291 27.8722 26.8877 27.9767 26.9922C28.0811 27.0967 28.1398 27.2383 28.1398 27.3861V32.399Z" fill="white"/>
</g>
<path d="M84.048 35.312C83.68 35.312 83.328 35.256 82.992 35.144C82.672 35.032 82.464 34.872 82.368 34.664L78.144 25.424C78.112 25.36 78.08 25.288 78.048 25.208C78.032 25.112 78.024 25.032 78.024 24.968C78.024 24.68 78.168 24.416 78.456 24.176C78.744 23.936 79.08 23.752 79.464 23.624C79.864 23.48 80.224 23.408 80.544 23.408C80.768 23.408 80.976 23.456 81.168 23.552C81.36 23.632 81.496 23.784 81.576 24.008L84.048 30.272L86.52 24.008C86.6 23.784 86.728 23.632 86.904 23.552C87.096 23.456 87.304 23.408 87.528 23.408C87.784 23.408 88.112 23.48 88.512 23.624C88.912 23.768 89.264 23.96 89.568 24.2C89.888 24.44 90.048 24.704 90.048 24.992C90.048 25.072 90.04 25.144 90.024 25.208C90.008 25.272 89.984 25.344 89.952 25.424L85.728 34.664C85.632 34.872 85.416 35.032 85.08 35.144C84.76 35.256 84.416 35.312 84.048 35.312ZM96.8863 35.144C95.7823 35.144 94.7823 34.96 93.8863 34.592C93.0063 34.224 92.3023 33.624 91.7743 32.792C91.2623 31.96 91.0063 30.856 91.0063 29.48V23.12C91.0063 21.744 91.2623 20.64 91.7743 19.808C92.3023 18.976 93.0063 18.376 93.8863 18.008C94.7823 17.64 95.7823 17.456 96.8863 17.456C97.9903 17.456 98.9903 17.64 99.8863 18.008C100.782 18.376 101.486 18.976 101.998 19.808C102.526 20.64 102.79 21.744 102.79 23.12V29.48C102.79 30.856 102.526 31.96 101.998 32.792C101.486 33.624 100.782 34.224 99.8863 34.592C98.9903 34.96 97.9903 35.144 96.8863 35.144ZM96.8863 31.88C97.5583 31.88 98.0863 31.688 98.4703 31.304C98.8543 30.92 99.0463 30.312 99.0463 29.48V23.12C99.0463 22.288 98.8543 21.68 98.4703 21.296C98.0863 20.912 97.5583 20.72 96.8863 20.72C96.2143 20.72 95.6863 20.912 95.3023 21.296C94.9343 21.68 94.7503 22.288 94.7503 23.12V29.48C94.7503 30.312 94.9343 30.92 95.3023 31.304C95.6863 31.688 96.2143 31.88 96.8863 31.88ZM96.9103 27.536C96.5263 27.536 96.2223 27.424 95.9983 27.2C95.7903 26.96 95.6863 26.656 95.6863 26.288C95.6863 25.936 95.7903 25.656 95.9983 25.448C96.2223 25.224 96.5263 25.112 96.9103 25.112C97.2783 25.112 97.5663 25.224 97.7743 25.448C97.9983 25.656 98.1103 25.936 98.1103 26.288C98.1103 26.656 97.9983 26.96 97.7743 27.2C97.5663 27.424 97.2783 27.536 96.9103 27.536ZM106.134 35.144C105.606 35.144 105.166 34.96 104.814 34.592C104.462 34.224 104.286 33.792 104.286 33.296C104.286 32.784 104.462 32.352 104.814 32C105.166 31.632 105.606 31.448 106.134 31.448C106.63 31.448 107.054 31.632 107.406 32C107.774 32.352 107.958 32.784 107.958 33.296C107.958 33.792 107.774 34.224 107.406 34.592C107.054 34.96 106.63 35.144 106.134 35.144ZM114.756 35.144C113.476 35.144 112.388 34.928 111.492 34.496C110.612 34.064 109.948 33.512 109.5 32.84C109.052 32.152 108.828 31.432 108.828 30.68C108.828 30.024 108.988 29.584 109.308 29.36C109.644 29.136 110.108 29.024 110.7 29.024C111.516 29.024 112.028 29.16 112.236 29.432C112.46 29.704 112.572 30.032 112.572 30.416C112.572 30.736 112.66 31.008 112.836 31.232C113.028 31.44 113.284 31.6 113.604 31.712C113.924 31.824 114.276 31.88 114.66 31.88C115.348 31.88 115.884 31.704 116.268 31.352C116.652 30.984 116.844 30.408 116.844 29.624V29.168C116.844 28.368 116.652 27.776 116.268 27.392C115.884 27.008 115.364 26.816 114.708 26.816H111.06C110.516 26.816 110.14 26.688 109.932 26.432C109.724 26.16 109.62 25.8 109.62 25.352C109.62 25.224 109.62 25.112 109.62 25.016C109.636 24.904 109.652 24.784 109.668 24.656L110.316 18.608C110.348 18.24 110.412 17.96 110.508 17.768C110.62 17.56 110.78 17.456 110.988 17.456H118.644C119.012 17.456 119.284 17.624 119.46 17.96C119.636 18.296 119.724 18.672 119.724 19.088C119.724 19.488 119.636 19.864 119.46 20.216C119.284 20.552 119.012 20.72 118.644 20.72H113.388L113.148 23.936H114.708C115.812 23.936 116.804 24.104 117.684 24.44C118.58 24.776 119.284 25.328 119.796 26.096C120.324 26.864 120.588 27.888 120.588 29.168V29.624C120.588 30.952 120.324 32.024 119.796 32.84C119.268 33.656 118.564 34.248 117.684 34.616C116.804 34.968 115.828 35.144 114.756 35.144ZM127.871 35.144C126.767 35.144 125.767 34.96 124.871 34.592C123.991 34.224 123.287 33.624 122.759 32.792C122.231 31.96 121.967 30.856 121.967 29.48V23.12C121.967 21.744 122.239 20.64 122.783 19.808C123.327 18.976 124.055 18.376 124.967 18.008C125.895 17.64 126.935 17.456 128.087 17.456C129.095 17.456 129.959 17.6 130.679 17.888C131.399 18.16 131.983 18.52 132.431 18.968C132.895 19.416 133.231 19.904 133.439 20.432C133.647 20.96 133.751 21.472 133.751 21.968C133.751 22.544 133.607 22.944 133.319 23.168C133.047 23.376 132.607 23.48 131.999 23.48C131.487 23.48 131.031 23.392 130.631 23.216C130.247 23.024 130.055 22.656 130.055 22.112C130.055 21.808 129.959 21.552 129.767 21.344C129.575 21.136 129.319 20.984 128.999 20.888C128.695 20.776 128.351 20.72 127.967 20.72C127.263 20.72 126.711 20.912 126.311 21.296C125.911 21.68 125.711 22.288 125.711 23.12V25.28C126.095 24.864 126.543 24.584 127.055 24.44C127.583 24.296 128.135 24.224 128.711 24.224C129.623 24.224 130.455 24.376 131.207 24.68C131.975 24.984 132.591 25.504 133.055 26.24C133.519 26.976 133.751 27.984 133.751 29.264V29.48C133.751 30.856 133.487 31.96 132.959 32.792C132.447 33.624 131.743 34.224 130.847 34.592C129.967 34.96 128.975 35.144 127.871 35.144ZM127.871 32.12C128.543 32.12 129.063 31.936 129.431 31.568C129.815 31.184 130.007 30.576 130.007 29.744V29.528C130.007 28.648 129.815 28.024 129.431 27.656C129.063 27.288 128.535 27.104 127.847 27.104C127.207 27.104 126.687 27.272 126.287 27.608C125.903 27.944 125.711 28.512 125.711 29.312V29.744C125.711 30.576 125.903 31.184 126.287 31.568C126.671 31.936 127.199 32.12 127.871 32.12ZM136.908 35.144C136.38 35.144 135.94 34.96 135.588 34.592C135.236 34.224 135.06 33.792 135.06 33.296C135.06 32.784 135.236 32.352 135.588 32C135.94 31.632 136.38 31.448 136.908 31.448C137.404 31.448 137.828 31.632 138.18 32C138.548 32.352 138.732 32.784 138.732 33.296C138.732 33.792 138.548 34.224 138.18 34.592C137.828 34.96 137.404 35.144 136.908 35.144ZM145.529 35.144C144.249 35.144 143.161 34.928 142.265 34.496C141.385 34.064 140.721 33.512 140.273 32.84C139.825 32.152 139.601 31.432 139.601 30.68C139.601 30.024 139.761 29.584 140.081 29.36C140.417 29.136 140.881 29.024 141.473 29.024C142.289 29.024 142.801 29.16 143.009 29.432C143.233 29.704 143.345 30.032 143.345 30.416C143.345 30.736 143.433 31.008 143.609 31.232C143.801 31.44 144.057 31.6 144.377 31.712C144.697 31.824 145.049 31.88 145.433 31.88C146.121 31.88 146.657 31.704 147.041 31.352C147.425 30.984 147.617 30.408 147.617 29.624V29.168C147.617 28.368 147.425 27.776 147.041 27.392C146.657 27.008 146.137 26.816 145.481 26.816H141.833C141.289 26.816 140.913 26.688 140.705 26.432C140.497 26.16 140.393 25.8 140.393 25.352C140.393 25.224 140.393 25.112 140.393 25.016C140.409 24.904 140.425 24.784 140.441 24.656L141.089 18.608C141.121 18.24 141.185 17.96 141.281 17.768C141.393 17.56 141.553 17.456 141.761 17.456H149.417C149.785 17.456 150.057 17.624 150.233 17.96C150.409 18.296 150.497 18.672 150.497 19.088C150.497 19.488 150.409 19.864 150.233 20.216C150.057 20.552 149.785 20.72 149.417 20.72H144.161L143.921 23.936H145.481C146.585 23.936 147.577 24.104 148.457 24.44C149.353 24.776 150.057 25.328 150.569 26.096C151.097 26.864 151.361 27.888 151.361 29.168V29.624C151.361 30.952 151.097 32.024 150.569 32.84C150.041 33.656 149.337 34.248 148.457 34.616C147.577 34.968 146.601 35.144 145.529 35.144Z" fill="white"/>
</g>
<defs>
<clipPath id="clip0_2902_11">
<rect width="170" height="52" fill="white"/>
</clipPath>
<clipPath id="clip1_2902_11">
<rect width="24" height="24" fill="white" transform="translate(17 14)"/>
</clipPath>
</defs>
</svg>
