<svg width="170" height="52" viewBox="0 0 170 52" fill="none" xmlns="http://www.w3.org/2000/svg">
<g clip-path="url(#clip0_2902_11)">
<mask id="mask0_2902_11" style="mask-type:luminance" maskUnits="userSpaceOnUse" x="0" y="0" width="170" height="52">
<path d="M170 0H0V52H170V0Z" fill="white"/>
</mask>
<g mask="url(#mask0_2902_11)">
<path d="M170 0H60V52H170V0Z" fill="#333333"/>
<path d="M60 0H0V52H60V0Z" fill="#3B3B3B"/>
</g>
<g clip-path="url(#clip1_2902_11)">
<path d="M29.8602 32.399C29.8602 29.3229 32.354 26.8291 35.4301 26.8291C38.5062 26.8291 41 29.3229 41 32.399C41 35.4752 38.5062 37.9689 35.4301 37.9689C32.354 37.9689 29.8602 35.4752 29.8602 32.399ZM29.8602 19.6008C29.8602 16.5246 32.354 14.0308 35.4301 14.0308C38.5062 14.0308 41 16.5247 41 19.6009V24.6138C41 24.7615 40.9413 24.9031 40.8368 25.0076C40.7324 25.112 40.5907 25.1707 40.443 25.1707H30.4172C30.2695 25.1707 30.1278 25.112 30.0234 25.0076C29.9189 24.9031 29.8602 24.7615 29.8602 24.6138V19.6008ZM28.1398 32.399C28.1398 35.4752 25.6461 37.9689 22.5699 37.9689C19.4937 37.9689 17 35.4752 17 32.399V27.3861C17 27.2383 17.0587 27.0967 17.1631 26.9922C17.2676 26.8877 17.4093 26.8291 17.557 26.8291H27.5828C27.7305 26.8291 27.8722 26.8877 27.9767 26.9922C28.0811 27.0967 28.1398 27.2383 28.1398 27.3861V32.399Z" fill="white"/>
</g>
<path d="M84.76 35.264C84.44 35.264 84.144 35.216 83.872 35.12C83.6 35.024 83.424 34.888 83.344 34.712L79.24 25.208C79.208 25.16 79.176 25.096 79.144 25.016C79.128 24.92 79.12 24.84 79.12 24.776C79.12 24.536 79.232 24.32 79.456 24.128C79.696 23.92 79.976 23.76 80.296 23.648C80.616 23.52 80.912 23.456 81.184 23.456C81.376 23.456 81.552 23.496 81.712 23.576C81.888 23.656 82.008 23.792 82.072 23.984L84.76 30.944L87.424 24.032C87.488 23.824 87.6 23.68 87.76 23.6C87.92 23.504 88.104 23.456 88.312 23.456C88.52 23.456 88.784 23.52 89.104 23.648C89.44 23.76 89.736 23.92 89.992 24.128C90.248 24.336 90.376 24.56 90.376 24.8C90.376 24.88 90.368 24.952 90.352 25.016C90.336 25.08 90.312 25.144 90.28 25.208L86.152 34.712C86.072 34.888 85.896 35.024 85.624 35.12C85.352 35.216 85.064 35.264 84.76 35.264ZM97.1804 35.144C96.1244 35.144 95.1724 34.968 94.3244 34.616C93.4764 34.248 92.8044 33.664 92.3084 32.864C91.8124 32.048 91.5644 30.968 91.5644 29.624V22.976C91.5644 21.632 91.8124 20.56 92.3084 19.76C92.8044 18.944 93.4764 18.36 94.3244 18.008C95.1724 17.64 96.1244 17.456 97.1804 17.456C98.2364 17.456 99.1884 17.64 100.036 18.008C100.9 18.36 101.58 18.944 102.076 19.76C102.572 20.56 102.82 21.632 102.82 22.976V29.624C102.82 30.968 102.572 32.048 102.076 32.864C101.58 33.664 100.9 34.248 100.036 34.616C99.1884 34.968 98.2364 35.144 97.1804 35.144ZM97.1804 32.408C97.9644 32.408 98.5804 32.184 99.0284 31.736C99.4764 31.288 99.7004 30.584 99.7004 29.624V22.976C99.7004 22.016 99.4764 21.312 99.0284 20.864C98.5804 20.416 97.9644 20.192 97.1804 20.192C96.3964 20.192 95.7804 20.416 95.3324 20.864C94.9004 21.312 94.6844 22.016 94.6844 22.976V29.624C94.6844 30.584 94.9004 31.288 95.3324 31.736C95.7804 32.184 96.3964 32.408 97.1804 32.408ZM97.1804 27.44C96.8444 27.44 96.5724 27.336 96.3644 27.128C96.1724 26.904 96.0764 26.632 96.0764 26.312C96.0764 25.976 96.1724 25.712 96.3644 25.52C96.5724 25.312 96.8444 25.208 97.1804 25.208C97.5324 25.208 97.8044 25.312 97.9964 25.52C98.2044 25.712 98.3084 25.976 98.3084 26.312C98.3084 26.632 98.2044 26.904 97.9964 27.128C97.8044 27.336 97.5324 27.44 97.1804 27.44ZM106.124 35.144C105.66 35.144 105.268 34.984 104.948 34.664C104.644 34.328 104.492 33.944 104.492 33.512C104.492 33.064 104.644 32.68 104.948 32.36C105.268 32.04 105.66 31.88 106.124 31.88C106.556 31.88 106.932 32.04 107.252 32.36C107.572 32.68 107.732 33.064 107.732 33.512C107.732 33.944 107.572 34.328 107.252 34.664C106.932 34.984 106.556 35.144 106.124 35.144ZM115.064 35.144C114.008 35.144 113.056 34.968 112.208 34.616C111.36 34.248 110.68 33.664 110.168 32.864C109.672 32.048 109.424 30.968 109.424 29.624V22.976C109.424 21.632 109.68 20.56 110.192 19.76C110.704 18.944 111.392 18.36 112.256 18.008C113.136 17.64 114.128 17.456 115.232 17.456C116.176 17.456 116.992 17.592 117.68 17.864C118.368 18.12 118.936 18.464 119.384 18.896C119.832 19.328 120.16 19.808 120.368 20.336C120.576 20.848 120.68 21.352 120.68 21.848C120.68 22.328 120.56 22.664 120.32 22.856C120.08 23.048 119.712 23.144 119.216 23.144C118.8 23.144 118.424 23.064 118.088 22.904C117.768 22.744 117.608 22.432 117.608 21.968C117.608 21.6 117.488 21.288 117.248 21.032C117.024 20.76 116.728 20.552 116.36 20.408C115.992 20.264 115.584 20.192 115.136 20.192C114.32 20.192 113.68 20.416 113.216 20.864C112.768 21.312 112.544 22.016 112.544 22.976V25.568C112.928 25.104 113.392 24.784 113.936 24.608C114.496 24.432 115.088 24.344 115.712 24.344C116.624 24.344 117.448 24.496 118.184 24.8C118.936 25.104 119.536 25.616 119.984 26.336C120.448 27.056 120.68 28.048 120.68 29.312V29.624C120.68 30.968 120.432 32.048 119.936 32.864C119.44 33.664 118.768 34.248 117.92 34.616C117.072 34.968 116.12 35.144 115.064 35.144ZM115.064 32.576C115.848 32.576 116.456 32.36 116.888 31.928C117.336 31.496 117.56 30.8 117.56 29.84V29.528C117.56 28.536 117.336 27.832 116.888 27.416C116.456 27 115.84 26.792 115.04 26.792C114.288 26.792 113.68 26.984 113.216 27.368C112.768 27.752 112.544 28.4 112.544 29.312V29.84C112.544 30.8 112.768 31.496 113.216 31.928C113.664 32.36 114.28 32.576 115.064 32.576ZM127.492 35.144C126.516 35.144 125.676 35.008 124.972 34.736C124.284 34.464 123.716 34.112 123.268 33.68C122.82 33.248 122.492 32.776 122.284 32.264C122.092 31.752 121.996 31.256 121.996 30.776C121.996 30.296 122.1 29.976 122.308 29.816C122.532 29.64 122.916 29.552 123.46 29.552C124.1 29.552 124.524 29.64 124.732 29.816C124.956 29.976 125.068 30.248 125.068 30.632C125.068 30.92 125.124 31.176 125.236 31.4C125.348 31.608 125.508 31.792 125.716 31.952C125.94 32.096 126.204 32.208 126.508 32.288C126.828 32.368 127.18 32.408 127.564 32.408C128.46 32.408 129.108 32.208 129.508 31.808C129.924 31.408 130.132 30.744 130.132 29.816V29.36C130.132 28.48 129.884 27.88 129.388 27.56C128.908 27.24 128.284 27.08 127.516 27.08C127.164 27.08 126.916 26.952 126.772 26.696C126.628 26.44 126.556 26.16 126.556 25.856C126.556 25.552 126.628 25.272 126.772 25.016C126.916 24.76 127.156 24.632 127.492 24.632C127.892 24.632 128.26 24.584 128.596 24.488C128.932 24.376 129.196 24.152 129.388 23.816C129.596 23.48 129.7 22.968 129.7 22.28C129.7 21.48 129.508 20.928 129.124 20.624C128.756 20.32 128.244 20.168 127.588 20.168C127.204 20.168 126.876 20.208 126.604 20.288C126.332 20.352 126.108 20.456 125.932 20.6C125.756 20.744 125.628 20.912 125.548 21.104C125.484 21.296 125.452 21.52 125.452 21.776C125.452 22.128 125.348 22.416 125.14 22.64C124.948 22.864 124.564 22.976 123.988 22.976C123.508 22.976 123.156 22.936 122.932 22.856C122.708 22.776 122.556 22.64 122.476 22.448C122.396 22.24 122.356 21.968 122.356 21.632C122.356 21.2 122.444 20.744 122.62 20.264C122.796 19.784 123.084 19.328 123.484 18.896C123.884 18.464 124.42 18.12 125.092 17.864C125.764 17.592 126.604 17.456 127.612 17.456C128.588 17.456 129.452 17.592 130.204 17.864C130.972 18.136 131.58 18.584 132.028 19.208C132.476 19.832 132.7 20.68 132.7 21.752C132.7 22.696 132.532 23.528 132.196 24.248C131.86 24.968 131.396 25.464 130.804 25.736C131.508 26.008 132.092 26.432 132.556 27.008C133.02 27.584 133.252 28.368 133.252 29.36V29.816C133.252 31.112 132.988 32.152 132.46 32.936C131.948 33.704 131.252 34.264 130.372 34.616C129.508 34.968 128.548 35.144 127.492 35.144ZM136.335 35.144C135.871 35.144 135.479 34.984 135.159 34.664C134.855 34.328 134.703 33.944 134.703 33.512C134.703 33.064 134.855 32.68 135.159 32.36C135.479 32.04 135.871 31.88 136.335 31.88C136.767 31.88 137.143 32.04 137.463 32.36C137.783 32.68 137.943 33.064 137.943 33.512C137.943 33.944 137.783 34.328 137.463 34.664C137.143 34.984 136.767 35.144 136.335 35.144ZM145.275 35.144C144.219 35.144 143.267 34.968 142.419 34.616C141.571 34.248 140.891 33.664 140.379 32.864C139.883 32.048 139.635 30.968 139.635 29.624V22.976C139.635 21.632 139.891 20.56 140.403 19.76C140.915 18.944 141.603 18.36 142.467 18.008C143.347 17.64 144.339 17.456 145.443 17.456C146.387 17.456 147.203 17.592 147.891 17.864C148.579 18.12 149.147 18.464 149.595 18.896C150.043 19.328 150.371 19.808 150.579 20.336C150.787 20.848 150.891 21.352 150.891 21.848C150.891 22.328 150.771 22.664 150.531 22.856C150.291 23.048 149.923 23.144 149.427 23.144C149.011 23.144 148.635 23.064 148.299 22.904C147.979 22.744 147.819 22.432 147.819 21.968C147.819 21.6 147.699 21.288 147.459 21.032C147.235 20.76 146.939 20.552 146.571 20.408C146.203 20.264 145.795 20.192 145.347 20.192C144.531 20.192 143.891 20.416 143.427 20.864C142.979 21.312 142.755 22.016 142.755 22.976V25.568C143.139 25.104 143.603 24.784 144.147 24.608C144.707 24.432 145.299 24.344 145.923 24.344C146.835 24.344 147.659 24.496 148.395 24.8C149.147 25.104 149.747 25.616 150.195 26.336C150.659 27.056 150.891 28.048 150.891 29.312V29.624C150.891 30.968 150.643 32.048 150.147 32.864C149.651 33.664 148.979 34.248 148.131 34.616C147.283 34.968 146.331 35.144 145.275 35.144ZM145.275 32.576C146.059 32.576 146.667 32.36 147.099 31.928C147.547 31.496 147.771 30.8 147.771 29.84V29.528C147.771 28.536 147.547 27.832 147.099 27.416C146.667 27 146.051 26.792 145.251 26.792C144.499 26.792 143.891 26.984 143.427 27.368C142.979 27.752 142.755 28.4 142.755 29.312V29.84C142.755 30.8 142.979 31.496 143.427 31.928C143.875 32.36 144.491 32.576 145.275 32.576Z" fill="white"/>
</g>
<defs>
<clipPath id="clip0_2902_11">
<rect width="170" height="52" fill="white"/>
</clipPath>
<clipPath id="clip1_2902_11">
<rect width="24" height="24" fill="white" transform="translate(17 14)"/>
</clipPath>
</defs>
</svg>
