<svg width="170" height="52" viewBox="0 0 170 52" fill="none" xmlns="http://www.w3.org/2000/svg">
<g clip-path="url(#clip0_2902_11)">
<mask id="mask0_2902_11" style="mask-type:luminance" maskUnits="userSpaceOnUse" x="0" y="0" width="170" height="52">
<path d="M170 0H0V52H170V0Z" fill="white"/>
</mask>
<g mask="url(#mask0_2902_11)">
<path d="M170 0H60V52H170V0Z" fill="#333333"/>
<path d="M60 0H0V52H60V0Z" fill="#3B3B3B"/>
</g>
<g clip-path="url(#clip1_2902_11)">
<path d="M29.8602 32.399C29.8602 29.3229 32.354 26.8291 35.4301 26.8291C38.5062 26.8291 41 29.3229 41 32.399C41 35.4752 38.5062 37.9689 35.4301 37.9689C32.354 37.9689 29.8602 35.4752 29.8602 32.399ZM29.8602 19.6008C29.8602 16.5246 32.354 14.0308 35.4301 14.0308C38.5062 14.0308 41 16.5247 41 19.6009V24.6138C41 24.7615 40.9413 24.9031 40.8368 25.0076C40.7324 25.112 40.5907 25.1707 40.443 25.1707H30.4172C30.2695 25.1707 30.1278 25.112 30.0234 25.0076C29.9189 24.9031 29.8602 24.7615 29.8602 24.6138V19.6008ZM28.1398 32.399C28.1398 35.4752 25.6461 37.9689 22.5699 37.9689C19.4937 37.9689 17 35.4752 17 32.399V27.3861C17 27.2383 17.0587 27.0967 17.1631 26.9922C17.2676 26.8877 17.4093 26.8291 17.557 26.8291H27.5828C27.7305 26.8291 27.8722 26.8877 27.9767 26.9922C28.0811 27.0967 28.1398 27.2383 28.1398 27.3861V32.399Z" fill="white"/>
</g>
<path d="M84.76 35.264C84.44 35.264 84.144 35.216 83.872 35.12C83.6 35.024 83.424 34.888 83.344 34.712L79.24 25.208C79.208 25.16 79.176 25.096 79.144 25.016C79.128 24.92 79.12 24.84 79.12 24.776C79.12 24.536 79.232 24.32 79.456 24.128C79.696 23.92 79.976 23.76 80.296 23.648C80.616 23.52 80.912 23.456 81.184 23.456C81.376 23.456 81.552 23.496 81.712 23.576C81.888 23.656 82.008 23.792 82.072 23.984L84.76 30.944L87.424 24.032C87.488 23.824 87.6 23.68 87.76 23.6C87.92 23.504 88.104 23.456 88.312 23.456C88.52 23.456 88.784 23.52 89.104 23.648C89.44 23.76 89.736 23.92 89.992 24.128C90.248 24.336 90.376 24.56 90.376 24.8C90.376 24.88 90.368 24.952 90.352 25.016C90.336 25.08 90.312 25.144 90.28 25.208L86.152 34.712C86.072 34.888 85.896 35.024 85.624 35.12C85.352 35.216 85.064 35.264 84.76 35.264ZM97.2038 35.144C96.1478 35.144 95.1958 34.968 94.3478 34.616C93.4998 34.248 92.8278 33.664 92.3318 32.864C91.8358 32.048 91.5878 30.968 91.5878 29.624V22.976C91.5878 21.632 91.8358 20.56 92.3318 19.76C92.8278 18.944 93.4998 18.36 94.3478 18.008C95.1958 17.64 96.1478 17.456 97.2038 17.456C98.2598 17.456 99.2118 17.64 100.06 18.008C100.924 18.36 101.604 18.944 102.1 19.76C102.596 20.56 102.844 21.632 102.844 22.976V29.624C102.844 30.968 102.596 32.048 102.1 32.864C101.604 33.664 100.924 34.248 100.06 34.616C99.2118 34.968 98.2598 35.144 97.2038 35.144ZM97.2038 32.408C97.9878 32.408 98.6038 32.184 99.0518 31.736C99.4998 31.288 99.7238 30.584 99.7238 29.624V22.976C99.7238 22.016 99.4998 21.312 99.0518 20.864C98.6038 20.416 97.9878 20.192 97.2038 20.192C96.4198 20.192 95.8038 20.416 95.3558 20.864C94.9238 21.312 94.7078 22.016 94.7078 22.976V29.624C94.7078 30.584 94.9238 31.288 95.3558 31.736C95.8038 32.184 96.4198 32.408 97.2038 32.408ZM97.2038 27.44C96.8678 27.44 96.5958 27.336 96.3878 27.128C96.1958 26.904 96.0998 26.632 96.0998 26.312C96.0998 25.976 96.1958 25.712 96.3878 25.52C96.5958 25.312 96.8678 25.208 97.2038 25.208C97.5558 25.208 97.8278 25.312 98.0198 25.52C98.2278 25.712 98.3318 25.976 98.3318 26.312C98.3318 26.632 98.2278 26.904 98.0198 27.128C97.8278 27.336 97.5558 27.44 97.2038 27.44ZM106.148 35.144C105.684 35.144 105.292 34.984 104.972 34.664C104.668 34.328 104.516 33.944 104.516 33.512C104.516 33.064 104.668 32.68 104.972 32.36C105.292 32.04 105.684 31.88 106.148 31.88C106.58 31.88 106.956 32.04 107.276 32.36C107.596 32.68 107.756 33.064 107.756 33.512C107.756 33.944 107.596 34.328 107.276 34.664C106.956 34.984 106.58 35.144 106.148 35.144ZM114.51 35.144C113.294 35.144 112.262 34.936 111.414 34.52C110.566 34.104 109.926 33.568 109.494 32.912C109.062 32.24 108.846 31.536 108.846 30.8C108.846 30.24 108.982 29.864 109.254 29.672C109.526 29.48 109.91 29.384 110.406 29.384C111.062 29.384 111.486 29.504 111.678 29.744C111.87 29.968 111.965 30.24 111.965 30.56C111.965 30.96 112.07 31.296 112.278 31.568C112.502 31.84 112.798 32.048 113.166 32.192C113.55 32.336 113.974 32.408 114.438 32.408C115.238 32.408 115.862 32.192 116.31 31.76C116.758 31.328 116.982 30.656 116.982 29.744V29.288C116.982 28.376 116.758 27.704 116.31 27.272C115.862 26.824 115.254 26.6 114.486 26.6H110.91C110.43 26.6 110.102 26.488 109.926 26.264C109.75 26.04 109.662 25.744 109.662 25.376C109.662 25.264 109.662 25.16 109.662 25.064C109.678 24.968 109.694 24.864 109.71 24.752L110.31 18.464C110.326 18.144 110.382 17.896 110.478 17.72C110.59 17.544 110.734 17.456 110.91 17.456H118.302C118.622 17.456 118.854 17.6 118.998 17.888C119.158 18.16 119.238 18.472 119.238 18.824C119.238 19.16 119.158 19.472 118.998 19.76C118.854 20.048 118.622 20.192 118.302 20.192H112.902L112.614 24.152H114.486C115.526 24.152 116.47 24.32 117.318 24.656C118.166 24.976 118.838 25.52 119.334 26.288C119.846 27.04 120.102 28.04 120.102 29.288V29.744C120.102 31.04 119.846 32.088 119.334 32.888C118.838 33.688 118.166 34.264 117.318 34.616C116.47 34.968 115.534 35.144 114.51 35.144ZM127.345 35.144C126.289 35.144 125.337 34.968 124.489 34.616C123.641 34.248 122.961 33.664 122.449 32.864C121.953 32.048 121.705 30.968 121.705 29.624V22.976C121.705 21.632 121.961 20.56 122.473 19.76C122.985 18.944 123.673 18.36 124.537 18.008C125.417 17.64 126.409 17.456 127.513 17.456C128.457 17.456 129.273 17.592 129.961 17.864C130.649 18.12 131.217 18.464 131.665 18.896C132.113 19.328 132.441 19.808 132.649 20.336C132.857 20.848 132.961 21.352 132.961 21.848C132.961 22.328 132.841 22.664 132.601 22.856C132.361 23.048 131.993 23.144 131.497 23.144C131.081 23.144 130.705 23.064 130.369 22.904C130.049 22.744 129.889 22.432 129.889 21.968C129.889 21.6 129.769 21.288 129.529 21.032C129.305 20.76 129.009 20.552 128.641 20.408C128.273 20.264 127.865 20.192 127.417 20.192C126.601 20.192 125.961 20.416 125.497 20.864C125.049 21.312 124.825 22.016 124.825 22.976V25.568C125.209 25.104 125.673 24.784 126.217 24.608C126.777 24.432 127.369 24.344 127.993 24.344C128.905 24.344 129.729 24.496 130.465 24.8C131.217 25.104 131.817 25.616 132.265 26.336C132.729 27.056 132.961 28.048 132.961 29.312V29.624C132.961 30.968 132.713 32.048 132.217 32.864C131.721 33.664 131.049 34.248 130.201 34.616C129.353 34.968 128.401 35.144 127.345 35.144ZM127.345 32.576C128.129 32.576 128.737 32.36 129.169 31.928C129.617 31.496 129.841 30.8 129.841 29.84V29.528C129.841 28.536 129.617 27.832 129.169 27.416C128.737 27 128.121 26.792 127.321 26.792C126.569 26.792 125.961 26.984 125.497 27.368C125.049 27.752 124.825 28.4 124.825 29.312V29.84C124.825 30.8 125.049 31.496 125.497 31.928C125.945 32.36 126.561 32.576 127.345 32.576ZM136.101 35.144C135.637 35.144 135.245 34.984 134.925 34.664C134.621 34.328 134.469 33.944 134.469 33.512C134.469 33.064 134.621 32.68 134.925 32.36C135.245 32.04 135.637 31.88 136.101 31.88C136.533 31.88 136.909 32.04 137.229 32.36C137.549 32.68 137.709 33.064 137.709 33.512C137.709 33.944 137.549 34.328 137.229 34.664C136.909 34.984 136.533 35.144 136.101 35.144ZM144.463 35.144C143.247 35.144 142.215 34.936 141.367 34.52C140.519 34.104 139.879 33.568 139.447 32.912C139.015 32.24 138.799 31.536 138.799 30.8C138.799 30.24 138.935 29.864 139.207 29.672C139.479 29.48 139.863 29.384 140.359 29.384C141.015 29.384 141.439 29.504 141.631 29.744C141.823 29.968 141.919 30.24 141.919 30.56C141.919 30.96 142.023 31.296 142.231 31.568C142.455 31.84 142.751 32.048 143.119 32.192C143.503 32.336 143.927 32.408 144.391 32.408C145.191 32.408 145.815 32.192 146.263 31.76C146.711 31.328 146.935 30.656 146.935 29.744V29.288C146.935 28.376 146.711 27.704 146.263 27.272C145.815 26.824 145.207 26.6 144.439 26.6H140.863C140.383 26.6 140.055 26.488 139.879 26.264C139.703 26.04 139.615 25.744 139.615 25.376C139.615 25.264 139.615 25.16 139.615 25.064C139.631 24.968 139.647 24.864 139.663 24.752L140.263 18.464C140.279 18.144 140.335 17.896 140.431 17.72C140.543 17.544 140.687 17.456 140.863 17.456H148.255C148.575 17.456 148.807 17.6 148.951 17.888C149.111 18.16 149.191 18.472 149.191 18.824C149.191 19.16 149.111 19.472 148.951 19.76C148.807 20.048 148.575 20.192 148.255 20.192H142.855L142.567 24.152H144.439C145.479 24.152 146.423 24.32 147.271 24.656C148.119 24.976 148.791 25.52 149.287 26.288C149.799 27.04 150.055 28.04 150.055 29.288V29.744C150.055 31.04 149.799 32.088 149.287 32.888C148.791 33.688 148.119 34.264 147.271 34.616C146.423 34.968 145.487 35.144 144.463 35.144Z" fill="white"/>
</g>
<defs>
<clipPath id="clip0_2902_11">
<rect width="170" height="52" fill="white"/>
</clipPath>
<clipPath id="clip1_2902_11">
<rect width="24" height="24" fill="white" transform="translate(17 14)"/>
</clipPath>
</defs>
</svg>
